<?xml version="1.0" encoding="utf-8"?>
<!-- Generator: Adobe Illustrator 24.1.2, SVG Export Plug-In . SVG Version: 6.00 Build 0)  -->
<svg version="1.1" id="Layer_1" xmlns="http://www.w3.org/2000/svg" xmlns:xlink="http://www.w3.org/1999/xlink" x="0px" y="0px"
	 viewBox="0 0 10 18" style="enable-background:new 0 0 10 18;" xml:space="preserve">
<style type="text/css">
	.st0{fill:none;}
</style>
<g id="Layer_2_1_">
	<path d="M9,18c-0.3,0-0.5-0.1-0.7-0.3l-8-8c-0.4-0.4-0.4-1,0-1.4c0,0,0,0,0,0l8-8c0.4-0.4,1-0.4,1.4,0s0.4,1,0,1.4L2.4,9l7.3,7.3
		c0.4,0.4,0.4,1,0,1.4c0,0,0,0,0,0C9.5,17.9,9.3,18,9,18z"/>
</g>
<g id="frame">
	<rect x="-11" y="-7" class="st0" width="32" height="32"/>
</g>
</svg>
